<?xml version="1.0" encoding="UTF-8"?><svg xmlns="http://www.w3.org/2000/svg" viewBox="0 0 100 74.13"><defs><style>.cls-1{fill:#f9f9f9;}.cls-2{fill:#e5e5e5;}.cls-3{fill:#7ecfe2;}.cls-4{fill:#bcbab7;}.cls-5,.cls-6{mix-blend-mode:multiply;}.cls-6{fill:#3b73a4;opacity:.5;}.cls-7{isolation:isolate;}</style></defs><g class="cls-7"><g id="_層_1"><g><g><rect class="cls-2" x="0" y="0" width="100" height="31.03" rx="4.97" ry="4.97"/><rect class="cls-4" x="8.37" y="10.84" width="83.25" height="10.34"/><g><path class="cls-3" d="M21.74,10.84c15.7,21.1-14.6,42.19,1.09,63.29,17.89,0,35.78,0,53.66,0-14.97-21.1,16.06-42.19,1.1-63.29-18.62,0-37.24,0-55.85,0Z"/><path class="cls-6" d="M37.19,73.84c.07,.1,.14,.19,.2,.29-4.85,0-9.7,0-14.56,0-3.75-5.04-4.88-10.08-4.63-15.13h.02c8.39,0,13.27,6.64,18.96,14.84Z"/><path class="cls-6" d="M72.4,59c-.42,5.04,.53,10.08,4.11,15.13-4.85,0-9.7,0-14.56,0-.07-.1-.14-.19-.21-.29-5.59-8.2,2.78-14.84,10.64-14.84h.02Z"/></g></g><g class="cls-5"><g><path class="cls-3" d="M58.36,65.64c0,4.08-3.03,6.08-7.1,6.08-5.57,0-10.04-3.74-9.93-9.89l2.03-.29c.04,4.48,2.76,6.26,5.26,6.5l.04-.11c-.89-.69-1.43-1.92-1.45-3.05-.07-3.05,2.2-5.12,5.12-5.14,3.32-.02,6.04,1.47,6.04,5.9Zm-8.84,.11c0,1.47,1.09,2.32,3.16,2.29,2.12-.02,3.47-1.07,3.47-2.43,0-1.49-1.2-2.16-3.32-2.14-2.07,.02-3.32,.73-3.32,2.27Z"/><path class="cls-3" d="M50.12,57.58c-6.12,0-8.82-3.14-8.82-6.26,0-3.5,3.16-5.99,8.33-5.99,5.72,0,8.8,2.05,8.8,6.19,0,3.43-3.14,6.06-8.31,6.06Zm-.45-8.42c-3.34,0-6.3,.51-6.3,2.27,0,1.54,2.92,2.32,6.53,2.32s6.46-.73,6.46-2.43c0-1.83-2.89-2.16-6.68-2.16Z"/><path class="cls-3" d="M50.12,43.33c-6.12,0-8.82-3.14-8.82-6.26,0-3.5,3.16-5.99,8.33-5.99,5.72,0,8.8,2.05,8.8,6.19,0,3.43-3.14,6.06-8.31,6.06Zm-.45-8.42c-3.34,0-6.3,.51-6.3,2.27,0,1.54,2.92,2.32,6.53,2.32s6.46-.73,6.46-2.43c0-1.83-2.89-2.16-6.68-2.16Z"/><path class="cls-3" d="M50.12,29.07c-6.12,0-8.82-3.14-8.82-6.26,0-3.5,3.16-5.99,8.33-5.99,5.72,0,8.8,2.05,8.8,6.19,0,3.43-3.14,6.06-8.31,6.06Zm-.45-8.42c-3.34,0-6.3,.51-6.3,2.27,0,1.54,2.92,2.32,6.53,2.32s6.46-.73,6.46-2.43c0-1.83-2.89-2.16-6.68-2.16Z"/></g></g><g><path class="cls-1" d="M56.96,64.23c0,4.08-3.03,6.08-7.1,6.08-5.57,0-10.04-3.74-9.93-9.89l2.03-.29c.04,4.48,2.76,6.26,5.26,6.5l.04-.11c-.89-.69-1.43-1.92-1.45-3.05-.07-3.05,2.2-5.12,5.12-5.14,3.32-.02,6.04,1.47,6.04,5.9Zm-8.84,.11c0,1.47,1.09,2.32,3.16,2.29,2.12-.02,3.47-1.07,3.47-2.43,0-1.49-1.2-2.16-3.32-2.14-2.07,.02-3.32,.73-3.32,2.27Z"/><path class="cls-1" d="M48.72,56.17c-6.12,0-8.82-3.14-8.82-6.26,0-3.5,3.16-5.99,8.33-5.99,5.72,0,8.8,2.05,8.8,6.19,0,3.43-3.14,6.06-8.31,6.06Zm-.45-8.42c-3.34,0-6.3,.51-6.3,2.27,0,1.54,2.92,2.32,6.53,2.32s6.46-.73,6.46-2.43c0-1.83-2.89-2.16-6.68-2.16Z"/><path class="cls-1" d="M48.72,41.92c-6.12,0-8.82-3.14-8.82-6.26,0-3.5,3.16-5.99,8.33-5.99,5.72,0,8.8,2.05,8.8,6.19,0,3.43-3.14,6.06-8.31,6.06Zm-.45-8.42c-3.34,0-6.3,.51-6.3,2.27,0,1.54,2.92,2.32,6.53,2.32s6.46-.73,6.46-2.43c0-1.83-2.89-2.16-6.68-2.16Z"/><path class="cls-1" d="M48.72,27.67c-6.12,0-8.82-3.14-8.82-6.26,0-3.5,3.16-5.99,8.33-5.99,5.72,0,8.8,2.05,8.8,6.19,0,3.43-3.14,6.06-8.31,6.06Zm-.45-8.42c-3.34,0-6.3,.51-6.3,2.27,0,1.54,2.92,2.32,6.53,2.32s6.46-.73,6.46-2.43c0-1.83-2.89-2.16-6.68-2.16Z"/></g></g></g></g></svg>